<svg xmlns="http://www.w3.org/2000/svg" xmlns:xlink="http://www.w3.org/1999/xlink" width="1200" zoomAndPan="magnify" viewBox="0 0 900 299.999988" height="400" preserveAspectRatio="xMidYMid meet" version="1.0"><defs><g/><clipPath id="d80fe4874b"><path d="M 30 90 L 172.5 90 L 172.5 210 L 30 210 Z M 30 90 " clip-rule="nonzero"/></clipPath></defs><g fill="#f7931a" fill-opacity="1"><g transform="translate(172.456673, 193.124984)"><g><path d="M 74.140625 -44.5 C 79.015625 -42.800781 82.832031 -40.140625 85.59375 -36.515625 C 88.363281 -32.898438 89.75 -28.53125 89.75 -23.40625 C 89.75 -15.925781 86.738281 -10.15625 80.71875 -6.09375 C 74.707031 -2.03125 66.007812 0 54.625 0 L 8.53125 0 L 8.53125 -85.359375 L 52.1875 -85.359375 C 63.082031 -85.359375 71.375 -83.34375 77.0625 -79.3125 C 82.75 -75.289062 85.59375 -69.867188 85.59375 -63.046875 C 85.59375 -58.972656 84.597656 -55.332031 82.609375 -52.125 C 80.617188 -48.914062 77.796875 -46.375 74.140625 -44.5 Z M 32.4375 -67.921875 L 32.4375 -51.453125 L 49.015625 -51.453125 C 57.148438 -51.453125 61.21875 -54.21875 61.21875 -59.75 C 61.21875 -65.195312 57.148438 -67.921875 49.015625 -67.921875 Z M 52.671875 -17.4375 C 61.128906 -17.4375 65.359375 -20.320312 65.359375 -26.09375 C 65.359375 -31.863281 61.128906 -34.75 52.671875 -34.75 L 32.4375 -34.75 L 32.4375 -17.4375 Z M 52.671875 -17.4375 "/></g></g></g><g fill="#f7931a" fill-opacity="1"><g transform="translate(266.223592, 193.124984)"><g><path d="M 26.703125 -66.21875 L 0.484375 -66.21875 L 0.484375 -85.359375 L 76.9375 -85.359375 L 76.9375 -66.21875 L 50.84375 -66.21875 L 50.84375 0 L 26.703125 0 Z M 26.703125 -66.21875 "/></g></g></g><g fill="#f7931a" fill-opacity="1"><g transform="translate(343.651404, 193.124984)"><g><path d="M 51.09375 1.703125 C 42.144531 1.703125 34.113281 -0.1875 27 -3.96875 C 19.894531 -7.75 14.304688 -13.007812 10.234375 -19.75 C 6.171875 -26.5 4.140625 -34.140625 4.140625 -42.671875 C 4.140625 -51.210938 6.171875 -58.851562 10.234375 -65.59375 C 14.304688 -72.34375 19.894531 -77.609375 27 -81.390625 C 34.113281 -85.171875 42.144531 -87.0625 51.09375 -87.0625 C 58.894531 -87.0625 65.925781 -85.675781 72.1875 -82.90625 C 78.445312 -80.144531 83.648438 -76.164062 87.796875 -70.96875 L 72.4375 -57.0625 C 66.90625 -63.726562 60.195312 -67.0625 52.3125 -67.0625 C 47.675781 -67.0625 43.550781 -66.046875 39.9375 -64.015625 C 36.320312 -61.984375 33.515625 -59.117188 31.515625 -55.421875 C 29.523438 -51.722656 28.53125 -47.472656 28.53125 -42.671875 C 28.53125 -37.878906 29.523438 -33.632812 31.515625 -29.9375 C 33.515625 -26.238281 36.320312 -23.375 39.9375 -21.34375 C 43.550781 -19.3125 47.675781 -18.296875 52.3125 -18.296875 C 60.195312 -18.296875 66.90625 -21.628906 72.4375 -28.296875 L 87.796875 -14.390625 C 83.648438 -9.179688 78.445312 -5.195312 72.1875 -2.4375 C 65.925781 0.320312 58.894531 1.703125 51.09375 1.703125 Z M 51.09375 1.703125 "/></g></g></g><g fill="#f7931a" fill-opacity="1"><g transform="translate(433.638385, 193.124984)"><g><path d="M 74.140625 -44.5 C 79.015625 -42.800781 82.832031 -40.140625 85.59375 -36.515625 C 88.363281 -32.898438 89.75 -28.53125 89.75 -23.40625 C 89.75 -15.925781 86.738281 -10.15625 80.71875 -6.09375 C 74.707031 -2.03125 66.007812 0 54.625 0 L 8.53125 0 L 8.53125 -85.359375 L 52.1875 -85.359375 C 63.082031 -85.359375 71.375 -83.34375 77.0625 -79.3125 C 82.75 -75.289062 85.59375 -69.867188 85.59375 -63.046875 C 85.59375 -58.972656 84.597656 -55.332031 82.609375 -52.125 C 80.617188 -48.914062 77.796875 -46.375 74.140625 -44.5 Z M 32.4375 -67.921875 L 32.4375 -51.453125 L 49.015625 -51.453125 C 57.148438 -51.453125 61.21875 -54.21875 61.21875 -59.75 C 61.21875 -65.195312 57.148438 -67.921875 49.015625 -67.921875 Z M 52.671875 -17.4375 C 61.128906 -17.4375 65.359375 -20.320312 65.359375 -26.09375 C 65.359375 -31.863281 61.128906 -34.75 52.671875 -34.75 L 32.4375 -34.75 L 32.4375 -17.4375 Z M 52.671875 -17.4375 "/></g></g></g><g fill="#f7931a" fill-opacity="1"><g transform="translate(527.405314, 193.124984)"><g><path d="M 29.515625 -58.171875 C 31.867188 -61.171875 34.9375 -63.421875 38.71875 -64.921875 C 42.5 -66.429688 46.828125 -67.1875 51.703125 -67.1875 L 51.703125 -46.34375 C 49.585938 -46.582031 47.835938 -46.703125 46.453125 -46.703125 C 41.492188 -46.703125 37.613281 -45.359375 34.8125 -42.671875 C 32.007812 -39.992188 30.609375 -35.890625 30.609375 -30.359375 L 30.609375 0 L 7.4375 0 L 7.4375 -66.09375 L 29.515625 -66.09375 Z M 29.515625 -58.171875 "/></g></g></g><g fill="#f7931a" fill-opacity="1"><g transform="translate(581.421881, 193.124984)"><g><path d="M 7.4375 -66.09375 L 30.609375 -66.09375 L 30.609375 0 L 7.4375 0 Z M 19.03125 -73.40625 C 14.800781 -73.40625 11.382812 -74.582031 8.78125 -76.9375 C 6.1875 -79.300781 4.890625 -82.226562 4.890625 -85.71875 C 4.890625 -89.21875 6.1875 -92.144531 8.78125 -94.5 C 11.382812 -96.851562 14.800781 -98.03125 19.03125 -98.03125 C 23.257812 -98.03125 26.671875 -96.910156 29.265625 -94.671875 C 31.867188 -92.441406 33.171875 -89.582031 33.171875 -86.09375 C 33.171875 -82.425781 31.867188 -79.394531 29.265625 -77 C 26.671875 -74.601562 23.257812 -73.40625 19.03125 -73.40625 Z M 19.03125 -73.40625 "/></g></g></g><g fill="#f7931a" fill-opacity="1"><g transform="translate(619.5871, 193.124984)"><g><path d="M 77.671875 -90.484375 L 77.671875 0 L 55.609375 0 L 55.609375 -6.578125 C 51.296875 -1.460938 44.832031 1.09375 36.21875 1.09375 C 30.195312 1.09375 24.707031 -0.304688 19.75 -3.109375 C 14.789062 -5.910156 10.867188 -9.910156 7.984375 -15.109375 C 5.097656 -20.316406 3.65625 -26.335938 3.65625 -33.171875 C 3.65625 -39.992188 5.097656 -45.984375 7.984375 -51.140625 C 10.867188 -56.304688 14.789062 -60.269531 19.75 -63.03125 C 24.707031 -65.800781 30.195312 -67.1875 36.21875 -67.1875 C 44.101562 -67.1875 50.195312 -64.910156 54.5 -60.359375 L 54.5 -90.484375 Z M 41.09375 -17.3125 C 45.070312 -17.3125 48.363281 -18.710938 50.96875 -21.515625 C 53.570312 -24.328125 54.875 -28.210938 54.875 -33.171875 C 54.875 -38.046875 53.59375 -41.863281 51.03125 -44.625 C 48.46875 -47.394531 45.15625 -48.78125 41.09375 -48.78125 C 37.03125 -48.78125 33.695312 -47.394531 31.09375 -44.625 C 28.488281 -41.863281 27.1875 -38.046875 27.1875 -33.171875 C 27.1875 -28.210938 28.488281 -24.328125 31.09375 -21.515625 C 33.695312 -18.710938 37.03125 -17.3125 41.09375 -17.3125 Z M 41.09375 -17.3125 "/></g></g></g><g fill="#f7931a" fill-opacity="1"><g transform="translate(704.696712, 193.124984)"><g><path d="M 78.53125 -66.09375 L 78.53125 -12.078125 C 78.53125 0.203125 75.195312 9.410156 68.53125 15.546875 C 61.863281 21.679688 52.269531 24.75 39.75 24.75 C 33.25 24.75 27.148438 24.015625 21.453125 22.546875 C 15.765625 21.085938 10.929688 18.9375 6.953125 16.09375 L 15.359375 -0.125 C 18.046875 2.070312 21.441406 3.800781 25.546875 5.0625 C 29.648438 6.320312 33.691406 6.953125 37.671875 6.953125 C 43.773438 6.953125 48.25 5.609375 51.09375 2.921875 C 53.9375 0.242188 55.359375 -3.734375 55.359375 -9.015625 L 55.359375 -11.21875 C 50.890625 -6.019531 44.347656 -3.421875 35.734375 -3.421875 C 29.878906 -3.421875 24.472656 -4.738281 19.515625 -7.375 C 14.554688 -10.019531 10.613281 -13.757812 7.6875 -18.59375 C 4.757812 -23.425781 3.296875 -29.015625 3.296875 -35.359375 C 3.296875 -41.617188 4.757812 -47.164062 7.6875 -52 C 10.613281 -56.84375 14.554688 -60.582031 19.515625 -63.21875 C 24.472656 -65.863281 29.878906 -67.1875 35.734375 -67.1875 C 45.160156 -67.1875 52.066406 -64.140625 56.453125 -58.046875 L 56.453125 -66.09375 Z M 41.21875 -21.828125 C 45.363281 -21.828125 48.796875 -23.085938 51.515625 -25.609375 C 54.242188 -28.128906 55.609375 -31.378906 55.609375 -35.359375 C 55.609375 -39.347656 54.265625 -42.582031 51.578125 -45.0625 C 48.898438 -47.539062 45.445312 -48.78125 41.21875 -48.78125 C 36.988281 -48.78125 33.507812 -47.539062 30.78125 -45.0625 C 28.0625 -42.582031 26.703125 -39.347656 26.703125 -35.359375 C 26.703125 -31.378906 28.082031 -28.128906 30.84375 -25.609375 C 33.613281 -23.085938 37.070312 -21.828125 41.21875 -21.828125 Z M 41.21875 -21.828125 "/></g></g></g><g fill="#f7931a" fill-opacity="1"><g transform="translate(790.659871, 193.124984)"><g><path d="M 74.984375 -32.921875 C 74.984375 -32.753906 74.863281 -30.84375 74.625 -27.1875 L 26.578125 -27.1875 C 27.554688 -23.78125 29.445312 -21.160156 32.25 -19.328125 C 35.050781 -17.492188 38.566406 -16.578125 42.796875 -16.578125 C 45.972656 -16.578125 48.71875 -17.023438 51.03125 -17.921875 C 53.34375 -18.816406 55.679688 -20.28125 58.046875 -22.3125 L 70.234375 -9.640625 C 63.816406 -2.484375 54.425781 1.09375 42.0625 1.09375 C 34.34375 1.09375 27.554688 -0.367188 21.703125 -3.296875 C 15.847656 -6.222656 11.316406 -10.285156 8.109375 -15.484375 C 4.898438 -20.691406 3.296875 -26.585938 3.296875 -33.171875 C 3.296875 -39.671875 4.859375 -45.5 7.984375 -50.65625 C 11.117188 -55.820312 15.445312 -59.867188 20.96875 -62.796875 C 26.5 -65.722656 32.71875 -67.1875 39.625 -67.1875 C 46.207031 -67.1875 52.179688 -65.820312 57.546875 -63.09375 C 62.921875 -60.375 67.171875 -56.429688 70.296875 -51.265625 C 73.421875 -46.109375 74.984375 -39.992188 74.984375 -32.921875 Z M 39.75 -50.71875 C 36.175781 -50.71875 33.1875 -49.703125 30.78125 -47.671875 C 28.382812 -45.640625 26.863281 -42.878906 26.21875 -39.390625 L 53.28125 -39.390625 C 52.632812 -42.878906 51.109375 -45.640625 48.703125 -47.671875 C 46.304688 -49.703125 43.320312 -50.71875 39.75 -50.71875 Z M 39.75 -50.71875 "/></g></g></g><g clip-path="url(#d80fe4874b)"><path fill="#f7931a" d="M 171.34375 176.113281 L 172.335938 176.484375 L 172.335938 184.785156 L 170.972656 184.226562 C 166.945312 182.617188 163.105469 180.574219 159.449219 178.15625 L 159.449219 197.050781 L 156.597656 194.761719 L 156.597656 176.113281 C 150.898438 171.898438 145.820312 166.757812 141.359375 161.246094 L 141.359375 182.492188 L 139.191406 180.757812 L 139.191406 158.457031 C 135.039062 152.941406 131.507812 147.058594 128.597656 141.234375 L 128.597656 172.273438 L 126.800781 170.847656 L 126.800781 137.453125 C 125.625 134.851562 124.570312 132.25 123.703125 129.710938 C 122.214844 125.558594 120.976562 121.347656 120.046875 117.074219 L 120.046875 167.933594 L 120.730469 168.492188 L 126.863281 173.386719 L 128.660156 174.8125 L 139.253906 183.300781 L 141.421875 185.035156 L 156.660156 197.238281 L 159.511719 199.53125 L 166.203125 204.921875 L 172.398438 209.875 L 151.890625 209.875 L 114.78125 167.996094 L 114.78125 118.496094 C 114.78125 111 108.648438 104.929688 101.214844 104.929688 C 93.71875 104.929688 87.648438 111.0625 87.648438 118.496094 L 87.648438 167.996094 L 50.539062 209.875 L 30.03125 209.875 L 36.226562 204.921875 L 42.917969 199.53125 L 45.769531 197.238281 L 61.007812 185.035156 L 63.175781 183.300781 L 73.769531 174.8125 L 75.566406 173.386719 L 81.699219 168.492188 L 82.382812 167.933594 L 82.382812 117.074219 C 81.453125 121.347656 80.214844 125.558594 78.726562 129.710938 C 77.796875 132.25 76.804688 134.789062 75.628906 137.453125 L 75.628906 170.847656 L 73.832031 172.273438 L 73.832031 141.234375 C 70.984375 147.058594 67.390625 152.941406 63.238281 158.457031 L 63.238281 180.757812 L 61.070312 182.492188 L 61.070312 161.246094 C 56.609375 166.757812 51.53125 171.835938 45.832031 176.113281 L 45.832031 194.761719 L 42.980469 197.050781 L 42.980469 178.15625 C 39.386719 180.574219 35.546875 182.617188 31.457031 184.226562 L 30.09375 184.785156 L 30.09375 176.484375 L 31.085938 176.113281 C 57.230469 166.136719 76.929688 132.375 81.453125 106.046875 C 82.445312 100.40625 82.320312 95.699219 82.320312 90 L 87.648438 90 L 87.648438 93.964844 C 87.648438 95.390625 89.011719 96.503906 90.683594 96.503906 L 111.746094 96.503906 C 113.417969 96.503906 114.78125 95.390625 114.78125 93.964844 L 114.78125 90 L 120.109375 90 C 120.109375 95.699219 119.984375 100.40625 120.976562 106.046875 C 125.5 132.375 145.199219 166.136719 171.34375 176.113281 Z M 171.34375 176.113281 " fill-opacity="1" fill-rule="evenodd"/></g><path fill="#f7931a" d="M 90.25 168.058594 L 62.617188 210 L 139.6875 210 L 112.054688 168.058594 Z M 90.25 168.058594 " fill-opacity="1" fill-rule="evenodd"/></svg>